# xmcd CD database file
#
# Track frame offsets:
#	150
#	16259
#	27879
#	43809
#	59605
#	73173
#	99388
#	124013
#	136070
#	147198
#	157121
#	170726
#	209902
#
# Disc length: 2968 seconds
#
# Revision: 0
# Processed by: cddbd v1.5.2PL0 Copyright (c) Steve Scherf et al.
# Submitted via: CDex 1.51
#
DISCID=c40b960d
DTITLE=Brenda Lee - Miss Dynamite Live
DYEAR=1900
DGENRE=Country
TTITLE0=Coming On Strong
TTITLE1=Silver Threads and Golden Needles
TTITLE2=Johnny One Time
TTITLE3=You're The One That I Want
TTITLE4=You Don't Have To Say You Love Me
TTITLE5=Medley - Jambalaya - Is It True - My Whole World Is Falling Down - Sweet Nothin's - End Of The World - All Alone An I
TTITLE6=Medley: Dum Dum - Fool No 1 - Too Many Rivers - Jambalaya
TTITLE7=How Much Love
TTITLE8=That's All You Gotta Do
TTITLE9=I'm Sorry
TTITLE10=Mama Don't Dance
TTITLE11=Gospel Medley: Good Ole Acapella - Old Landmarks - I'll Fly Away - Operator - Up Above My Head - Saved
TTITLE12=Medley: When You're Smiling - You Ought To Be In Pictures - Put On A Happy Face - Smile - Baby Face
EXTD=
EXTT0=
EXTT1=
EXTT2=
EXTT3=
EXTT4=
EXTT5=
EXTT6=
EXTT7=
EXTT8=
EXTT9=
EXTT10=
EXTT11=
EXTT12=
PLAYORDER=
